<?xml version="1.0" encoding="iso-8859-1"?>
<!-- Generator: Adobe Illustrator 20.0.0, SVG Export Plug-In . SVG Version: 6.00 Build 0)  -->
<svg version="1.1" id="Layer_1_1_" xmlns="http://www.w3.org/2000/svg" xmlns:xlink="http://www.w3.org/1999/xlink" x="0px" y="0px"
	 viewBox="0 0 64 64" style="enable-background:new 0 0 64 64;" xml:space="preserve">
<g id="Guide">
	<g>
	</g>
	<g>
	</g>
	<g>
	</g>
	<g>
	</g>
	<g>
	</g>
	<g>
	</g>
	<g>
	</g>
	<g>
	</g>
	<g>
	</g>
	<g>
	</g>
	<g>
	</g>
	<g>
	</g>
	<g>
	</g>
	<g>
	</g>
	<g>
	</g>
	<g>
	</g>
	<g>
	</g>
	<g>
	</g>
	<g>
	</g>
	<g>
	</g>
	<g>
	</g>
	<g>
	</g>
	<g>
	</g>
	<g>
	</g>
	<g>
	</g>
	<g>
	</g>
	<g>
	</g>
	<g>
	</g>
	<g>
	</g>
	<g>
	</g>
	<g>
	</g>
	<g>
	</g>
	<g>
	</g>
	<g>
	</g>
	<g>
	</g>
	<g>
	</g>
</g>
<rect x="31" y="46" width="2" height="2"/>
<rect x="27" y="46" width="2" height="2"/>
<rect x="35" y="46" width="2" height="2"/>
<rect x="6" y="4" width="2" height="2"/>
<rect x="10" y="4" width="2" height="2"/>
<rect x="14" y="4" width="2" height="2"/>
<path d="M11,32h8c0.552,0,1,0.448,1,1s-0.448,1-1,1h-3c-1.654,0-3,1.346-3,3s1.346,3,3,3h15c0.266,0,0.521-0.106,0.709-0.295
	C31.966,39.447,38,33.322,38,28c0-5.01-2.617-8-7-8s-7,2.99-7,8c0,3.69,2.898,7.761,4.762,10H16c-0.552,0-1-0.448-1-1s0.448-1,1-1h3
	c1.654,0,3-1.346,3-3s-1.346-3-3-3h-5.762C15.102,27.761,18,23.69,18,20c0-5.01-2.617-8-7-8s-7,2.99-7,8
	c0,5.322,6.034,11.447,6.291,11.705C10.479,31.894,10.734,32,11,32z M31,22c3.225,0,5,2.131,5,6c0,3.523-3.471,7.811-5,9.529
	c-1.529-1.719-5-6.006-5-9.529C26,24.131,27.775,22,31,22z M11,14c3.225,0,5,2.131,5,6c0,3.523-3.471,7.811-5,9.529
	C9.471,27.811,6,23.523,6,20C6,16.131,7.775,14,11,14z"/>
<path d="M14,19c0-1.654-1.346-3-3-3s-3,1.346-3,3s1.346,3,3,3S14,20.654,14,19z M10,19c0-0.552,0.448-1,1-1s1,0.448,1,1
	s-0.448,1-1,1S10,19.552,10,19z"/>
<path d="M34,27c0-1.654-1.346-3-3-3s-3,1.346-3,3s1.346,3,3,3S34,28.654,34,27z M30,27c0-0.552,0.448-1,1-1s1,0.448,1,1
	s-0.448,1-1,1S30,27.552,30,27z"/>
<path d="M59,0H5C2.243,0,0,2.368,0,5.125V47c0,2.757,2.243,5,5,5h17.557l-2.25,6H14c-0.553,0-1,0.447-1,1c0,2.757,2.243,5,5,5h28
	c2.757,0,5-2.243,5-5c0-0.553-0.447-1-1-1h-6.307l-2.25-6H59c2.757,0,5-2.243,5-5V5.125C64,2.368,61.757,0,59,0z M5,2h54
	c1.654,0,3,1.471,3,3.125V8H4v2h58v32H2V5.125C2,3.471,3.346,2,5,2z M46,62H18c-1.304,0-2.416-0.836-2.829-2H21h22h5.829
	C48.416,61.164,47.304,62,46,62z M41.557,58H22.443l2.25-6h14.613L41.557,58z M59,50H40H24H5c-1.654,0-3-1.346-3-3v-3h60v3
	C62,48.654,60.654,50,59,50z"/>
<path d="M41,24h7c0.553,0,1-0.447,1-1v-4c0-0.553-0.447-1-1-1h-7c-0.553,0-1,0.447-1,1v4C40,23.553,40.447,24,41,24z M42,20h5v2h-5
	V20z"/>
<path d="M52,24h7c0.553,0,1-0.447,1-1v-4c0-0.553-0.447-1-1-1h-7c-0.553,0-1,0.447-1,1v4C51,23.553,51.447,24,52,24z M53,20h5v2h-5
	V20z"/>
<rect x="40" y="26" width="20" height="2"/>
<rect x="40" y="30" width="20" height="2"/>
<rect x="40" y="34" width="20" height="2"/>
<rect x="40" y="13" width="3" height="2"/>
<rect x="45" y="13" width="4" height="2"/>
<rect x="51" y="13" width="9" height="2"/>
</svg>
