<svg width="128" height="128" viewBox="0 0 128 128" fill="none" xmlns="http://www.w3.org/2000/svg">
<g clip-path="url(#clip0_139_252)">
<path d="M48 96V80H72V96H48Z" fill="#626262"/>
<path d="M74.344 0H32C27.7565 0 23.6869 1.68571 20.6863 4.68629C17.6857 7.68687 16 11.7565 16 16V112C16 116.243 17.6857 120.313 20.6863 123.314C23.6869 126.314 27.7565 128 32 128H96C100.243 128 104.313 126.314 107.314 123.314C110.314 120.313 112 116.243 112 112V37.656C112 35.5344 111.156 33.4999 109.656 32L80 2.344C78.5001 0.843605 76.4656 0.000453099 74.344 0V0ZM76 28V12L100 36H84C81.8783 36 79.8434 35.1571 78.3431 33.6569C76.8429 32.1566 76 30.1217 76 28ZM24 72H104V80H80V96H104V104H80V120H72V104H48V120H40V104H24V96H40V80H24V72Z" fill="#626262"/>
</g>
<defs>
<clipPath id="clip0_139_252">
<rect width="128" height="128" fill="white"/>
</clipPath>
</defs>
</svg>
