<svg width="128" height="128" viewBox="0 0 128 128" fill="none" xmlns="http://www.w3.org/2000/svg">
<path d="M63.9999 6.3999C31.9999 6.3999 6.3999 31.9999 6.3999 63.9999C6.3999 95.9999 31.9999 121.6 63.9999 121.6C95.9999 121.6 121.6 95.9999 121.6 63.9999C121.6 31.9999 95.9999 6.3999 63.9999 6.3999ZM63.9999 108.8C39.0399 108.8 19.1999 88.9599 19.1999 63.9999C19.1999 39.0399 39.0399 19.1999 63.9999 19.1999C88.9599 19.1999 108.8 39.0399 108.8 63.9999C108.8 88.9599 88.9599 108.8 63.9999 108.8ZM38.3999 57.5999V70.3999H89.5999V57.5999H38.3999Z" fill="#626262"/>
</svg>
