<svg width="128" height="128" viewBox="0 0 128 128" fill="none" xmlns="http://www.w3.org/2000/svg">
<g clip-path="url(#clip0_139_258)">
<path d="M3.2749 46.9911V9.88853C3.55821 4.21963 8.12621 0.0682667 13.1634 0H50.2659C56.2327 0.370773 63.3567 2.71008 67.1828 7.02827L122.101 68.1578C125.551 72.5249 125.648 78.5683 122.101 82.2141L79.1145 125.201C74.8996 129.014 68.611 128.852 65.058 125.201L10.3031 63.9079C6.31149 59.194 3.32994 52.8916 3.2749 46.9911ZM19.3744 25.5795C19.6083 31.0953 23.9594 35.0759 28.8544 35.1412C34.386 34.8942 38.3507 30.4851 38.4161 25.5795C38.1726 20.0453 33.741 16.1637 28.8544 16.0995C23.336 16.33 19.4383 20.7036 19.3744 25.5795V25.5795Z" fill="#626262"/>
</g>
<defs>
<clipPath id="clip0_139_258">
<rect width="128" height="128" fill="white"/>
</clipPath>
</defs>
</svg>
