<svg width="128" height="128" viewBox="0 0 128 128" fill="none" xmlns="http://www.w3.org/2000/svg">
<path d="M32.0853 24.0106C29.999 24.0085 27.9327 24.4179 26.0048 25.2153C24.0769 26.0127 22.3251 27.1826 20.8499 28.6578C19.3746 30.1331 18.2048 31.8848 17.4074 33.8127C16.6099 35.7407 16.2005 37.8069 16.2026 39.8933C16.2026 51.8026 32.0853 69.3866 32.0853 69.3866C32.0853 69.3866 47.968 51.8026 47.968 39.8933C47.9701 37.8069 47.5607 35.7407 46.7633 33.8127C45.9658 31.8848 44.796 30.1331 43.3207 28.6578C41.8455 27.1826 40.0938 26.0127 38.1658 25.2153C36.2379 24.4179 34.1716 24.0085 32.0853 24.0106V24.0106ZM32.0853 45.5626C30.964 45.5626 29.8679 45.2301 28.9356 44.6071C28.0033 43.9842 27.2766 43.0988 26.8475 42.0628C26.4184 41.0269 26.3062 39.887 26.5249 38.7872C26.7437 37.6875 27.2836 36.6773 28.0765 35.8844C28.8694 35.0916 29.8795 34.5516 30.9793 34.3329C32.079 34.1141 33.2189 34.2264 34.2549 34.6555C35.2908 35.0846 36.1762 35.8112 36.7992 36.7436C37.4221 37.6759 37.7546 38.772 37.7546 39.8933C37.7532 41.3964 37.1555 42.8376 36.0926 43.9005C35.0297 44.9634 33.5885 45.5612 32.0853 45.5626V45.5626ZM112.128 60.2453V37.3119C112.091 34.9037 111.724 32.5118 111.04 30.2026C109.29 24.0976 105.417 18.8185 100.119 15.3165C94.8209 11.8146 88.4463 10.3201 82.1438 11.1024C75.8414 11.8848 70.0256 14.8925 65.7446 19.5835C61.4636 24.2745 58.9989 30.3404 58.7946 36.6879V38.0106L58.7413 42.6506V95.7279H58.72V95.9466C58.72 98.7756 57.5962 101.489 55.5958 103.489C53.5954 105.489 50.8823 106.613 48.0533 106.613C45.2243 106.613 42.5112 105.489 40.5108 103.489C38.5105 101.489 37.3866 98.7756 37.3866 95.9466C37.3866 95.8826 37.4026 95.8186 37.408 95.7493H37.3866V85.3866H26.72V96.0533H26.7306C26.7342 101.708 28.9841 107.13 32.9853 111.127C36.9866 115.123 42.4115 117.366 48.0666 117.363C53.7218 117.359 59.1439 115.109 63.1401 111.108C67.1364 107.107 69.3795 101.682 69.376 96.0266H69.3866V90.7893H69.4133V47.9839L69.4666 38.0106V36.6933C69.6187 32.4947 71.4155 28.5242 74.4693 25.6387C77.5231 22.7533 81.5891 21.1844 85.7895 21.2705C89.99 21.3566 93.9882 23.0909 96.9212 26.099C99.8542 29.1072 101.487 33.1479 101.467 37.3493V60.1493C99.4243 61.3049 97.8203 63.1021 96.9033 65.2621C95.9863 67.4222 95.8076 69.8244 96.3948 72.0964C96.9821 74.3684 98.3026 76.3831 100.151 77.8282C102 79.2733 104.274 80.068 106.621 80.0891C108.967 80.1102 111.255 79.3566 113.13 77.945C115.005 76.5334 116.361 74.5428 116.989 72.2817C117.617 70.0207 117.482 67.6156 116.604 65.4394C115.726 63.2632 114.155 61.4375 112.133 60.2453H112.128Z" fill="#626262"/>
</svg>
