<svg xmlns="http://www.w3.org/2000/svg" viewBox="0 0 48 48"><rect width="16" height="8" x="27" y="13" fill="#bfbfbf" transform="rotate(-180 35 17)"/><path fill="#bfbfbf" d="M18 9H1V4A3 3 0 0 1 4 1H16zM11 18H5a1 1 0 0 1 0-2h6a1 1 0 0 1 0 2zM15 26H5a1 1 0 0 1 0-2H15a1 1 0 0 1 0 2zM23 22H5a1 1 0 0 1 0-2H23a1 1 0 0 1 0 2zM23 18H15a1 1 0 0 1 0-2h8a1 1 0 0 1 0 2zM17 14H5a1 1 0 0 1 0-2H17a1 1 0 0 1 0 2zM23 14H21a1 1 0 0 1 0-2h2a1 1 0 0 1 0 2z"/><path fill="#424242" d="M44,0H4A4,4,0,0,0,0,4V38a4,4,0,0,0,4,4h7.43a4.17,4.17,0,0,0,3.75,6H32.82a4.17,4.17,0,0,0,3.75-6H44a4,4,0,0,0,4-4V4A4,4,0,0,0,44,0Zm2,4V8H18.78l-1.5-6H44A2,2,0,0,1,46,4ZM2,4A2,2,0,0,1,4,2H15.22l1.5,6H2ZM32.82,46H15.18A2.19,2.19,0,0,1,13,43.82c0-.8-.47.28,8.9-16.59a2.41,2.41,0,0,1,4.2,0C35.5,44.16,35,43,35,43.82A2.19,2.19,0,0,1,32.82,46ZM46,38a2,2,0,0,1-2,2H35.48L27.85,26.26a4.41,4.41,0,0,0-7.7,0L12.52,40H4a2,2,0,0,1-2-2V10H46Z"/><path fill="#424242" d="M25,6H43a1,1,0,0,0,0-2H25a1,1,0,0,0,0,2Z"/><circle cx="5" cy="5" r="1" fill="#424242"/><circle cx="9" cy="5" r="1" fill="#424242"/><circle cx="13" cy="5" r="1" fill="#424242"/><circle cx="24" cy="42" r="2" fill="#fc6459"/><path fill="#fc6459" d="M24,38h0a1.13,1.13,0,0,1-1.12-1l-.63-5A1.76,1.76,0,0,1,24,30h0a1.76,1.76,0,0,1,1.75,2l-.63,5A1.13,1.13,0,0,1,24,38Z"/><path fill="#424242" d="M43 22H27a1 1 0 0 1-1-1V13a1 1 0 0 1 1-1H43a1 1 0 0 1 1 1v8A1 1 0 0 1 43 22zM28 20H42V14H28zM43 37H38a1 1 0 0 1 0-2h5a1 1 0 0 1 0 2zM43 33H35a1 1 0 0 1 0-2h8a1 1 0 0 1 0 2z"/></svg>