<svg xmlns="http://www.w3.org/2000/svg" enable-background="new 0 0 64 64" viewBox="0 0 64 64"><path d="M62.6,35.15c-1.93-2.23-5.15-2.4-5.17-2.37c-0.22-0.03-0.42-0.07-0.59-0.13c0,0-0.01,0-0.01-0.01
	c-0.59-0.19-0.87-0.49-0.87-0.93c2.27-2.14,2.59-5.54,2.6-5.67c0.09-0.76,0.1-1.47,0.03-2.08c-0.39-4.46-4.1-5.49-5.92-5.44
	c-0.1,0-2.56-0.07-4.33,1.64c-1.15,1.12-1.72,2.69-1.71,4.68c0.01,0.37,0.03,0.77,0.07,1.17c0.01,0.15,0.33,3.56,2.6,5.7
	c-0.03,0.28-0.2,0.62-0.89,0.84c0,0-0.01,0-0.01,0c0,0-0.01,0-0.01,0c-0.16,0.06-0.34,0.09-0.55,0.13c-0.56,0.03-3.9,0.35-5.61,2.93
	c-0.77-0.13-1.32-0.17-1.5-0.18c-0.45-0.07-0.86-0.16-1.22-0.27c0,0-0.01,0-0.01,0c-0.68-0.23-1.22-0.86-1.61-1.89c0,0,0,0,0,0
	c0,0,0,0,0,0c-0.53-1.35-0.6-2.89-0.58-3.31c0-0.08,0.01-0.15,0.02-0.22c4.23-3.72,4.81-10,4.83-10.25
	c0.15-1.31,0.17-2.53,0.07-3.59c0,0,0,0,0-0.01c0,0,0-0.01,0-0.01c0-0.02,0-0.05-0.01-0.08c-0.84-9.57-10.16-9.33-10.18-9.33
	c-0.18-0.01-4.39-0.13-7.41,2.81c-1.96,1.91-2.94,4.62-2.91,8.07c0.01,0.67,0.05,1.39,0.13,2.11c0.02,0.27,0.61,6.56,4.84,10.29
	c0,0.05,0.01,0.09,0,0.15c-0.02,1.44-0.14,3.29-0.25,3.62c0,0.01-0.01,0.01-0.01,0.02c-0.34,0.66-1,1.15-1.99,1.47c0,0,0,0-0.01,0
	c0,0,0,0-0.01,0c-0.33,0.11-0.71,0.2-1.17,0.26c-0.19,0.01-0.78,0.05-1.59,0.2c-1.85-2.62-5.4-2.8-5.5-2.8c0,0,0,0,0,0
	c-0.22-0.03-0.41-0.07-0.58-0.13c-0.01,0-0.01,0-0.02,0c0,0-0.01,0-0.01,0c-0.59-0.19-0.87-0.49-0.87-0.93
	c2.27-2.14,2.59-5.54,2.6-5.67c0.09-0.76,0.1-1.47,0.03-2.08c-0.39-4.46-4.07-5.5-5.92-5.44c-0.1,0-2.56-0.07-4.32,1.64
	c-1.15,1.12-1.72,2.69-1.71,4.68c0.01,0.37,0.03,0.77,0.07,1.17c0.01,0.15,0.33,3.56,2.6,5.7c-0.03,0.28-0.2,0.62-0.89,0.84
	c0,0-0.01,0-0.01,0c-0.16,0.05-0.34,0.09-0.54,0.12c-0.47,0.03-3.4,0.28-5.21,2.37c-1.12,1.29-1.57,2.99-1.34,5.03l0.34,3.11
	c0.04,0.36,0.27,0.66,0.61,0.8c0.18,0.07,4.04,1.57,10.17,1.57c0.2,0,0.41-0.01,0.61-0.01c-0.05,0.84-0.04,1.72,0.07,2.64l0.63,5.78
	c0.04,0.36,0.27,0.66,0.61,0.8c0.43,0.17,7.42,2.87,18.47,2.87c5.51,0,12.03-0.67,19.24-2.66c0.38-0.11,0.66-0.43,0.71-0.83
	l0.63-5.78c0.11-0.94,0.12-1.84,0.06-2.69c0.08,0,0.16,0,0.24,0c3.47,0,6.98-0.48,10.45-1.44c0.38-0.11,0.66-0.43,0.71-0.83
	l0.34-3.12C64.17,38.14,63.72,36.45,62.6,35.15z M48.65,25.84c-0.04-0.36-0.06-0.69-0.06-1.01c-0.01-1.43,0.36-2.52,1.11-3.25
	c1.16-1.14,2.9-1.11,2.98-1.1c0.38-0.01,3.67,0.01,3.99,3.69c0.05,0.49,0.04,1.05-0.03,1.7c0,0.03-0.3,3.29-2.44,4.82
	c-0.03,0.02-0.05,0.03-0.08,0.05c-0.05,0.04-0.1,0.07-0.15,0.1c-0.83,0.51-1.82,0.51-2.65,0c-0.05-0.03-0.1-0.07-0.15-0.1
	c-0.03-0.02-0.05-0.04-0.08-0.05c-0.07-0.05-0.13-0.1-0.19-0.15c0,0,0,0,0,0C48.94,28.94,48.65,25.88,48.65,25.84z M37.87,36.48
	l-2.28,3.93l-2.22-2.26l3.31-2.96C37.03,35.72,37.43,36.15,37.87,36.48z M32.01,39.53l1.37,1.4l-1.3,1.44
	c-0.03,0.03-0.05,0.06-0.08,0.1c-0.02-0.03-0.05-0.07-0.08-0.1l-1.23-1.35L32.01,39.53z M28.38,33.61c0.12-0.7,0.18-1.67,0.21-2.54
	c1.08,0.56,2.24,0.85,3.41,0.85c1.18,0,2.35-0.3,3.42-0.87c0.06,0.66,0.2,1.46,0.44,2.27l-3.9,3.48L28.38,33.61z M32,43.99
	l1.51,7.65L32,52.8l-1.52-1.16L32,43.99z M25.96,10.68c2.41-2.36,5.97-2.28,6.08-2.27c0.29-0.01,6.95-0.16,8.12,6.64
	c-4.66,0.33-10.76-2.87-10.83-2.9C29,11.98,28.61,12,28.31,12.21l-4.54,3.18C24.04,13.43,24.77,11.85,25.96,10.68z M23.77,19.27
	c-0.05-0.5-0.08-0.98-0.1-1.44l5.28-3.69c1.68,0.82,6.94,3.17,11.38,2.84c0.02,0.72,0,1.47-0.1,2.31c-0.01,0.07-0.61,6.54-4.91,9.58
	c-0.04,0.02-0.07,0.04-0.1,0.07c-0.11,0.08-0.21,0.15-0.32,0.22c-1.81,1.12-3.97,1.12-5.79,0c-0.11-0.07-0.22-0.14-0.33-0.22
	c-0.03-0.03-0.07-0.05-0.11-0.07c-0.15-0.11-0.3-0.22-0.44-0.34c0,0,0,0,0,0C24.34,25.36,23.78,19.35,23.77,19.27z M27.47,35.39
	l3.14,2.8l-1.93,2.19l-2.51-4.01C26.67,36.1,27.11,35.78,27.47,35.39z M7.37,25.71c-0.04-0.35-0.06-0.69-0.06-1.01
	c-0.01-1.43,0.36-2.52,1.11-3.25c1.16-1.14,2.91-1.1,2.98-1.1c0.15,0,3.66-0.09,3.99,3.69c0.05,0.48,0.04,1.04-0.03,1.69
	c0,0.03-0.32,3.3-2.45,4.83c-0.03,0.02-0.05,0.03-0.08,0.05c-0.05,0.04-0.1,0.07-0.15,0.1c-0.83,0.51-1.82,0.51-2.65,0
	c-0.05-0.03-0.1-0.07-0.15-0.1c-0.03-0.02-0.05-0.04-0.08-0.05c-0.07-0.05-0.13-0.1-0.2-0.15c0,0,0,0,0,0
	C7.66,28.82,7.37,25.76,7.37,25.71z M12.08,43.49c-4.94,0.13-8.52-0.82-9.82-1.24l-0.27-2.5c-0.17-1.48,0.13-2.67,0.87-3.54
	c1.37-1.59,3.85-1.71,3.87-1.71c0.03,0,0.07,0,0.1-0.01c0.32-0.04,0.63-0.11,0.91-0.2c0.01,0,0.01-0.01,0.02-0.01
	c1.11-0.36,1.66-0.99,1.95-1.58c0.53,0.22,1.09,0.33,1.66,0.33c0.55,0,1.1-0.11,1.62-0.32c0.34,0.76,1.02,1.35,1.98,1.66
	c0.01,0,0.01,0,0.02,0c0.28,0.09,0.58,0.16,1.01,0.22c0.03,0,2.15,0.11,3.56,1.39c-1.77,0.57-3.83,1.58-5.4,3.4
	C13.13,40.56,12.45,41.94,12.08,43.49z M50.22,48.04l-0.56,5.13c-18.5,4.93-32.44,0.84-35.31-0.12l-0.57-5.18
	c-0.33-2.98,0.28-5.41,1.82-7.2c1.66-1.93,4.09-2.78,5.79-3.16c0.02,0,0.03-0.01,0.05-0.01c1.12-0.25,1.92-0.29,1.94-0.29
	c0.03,0,0.07,0,0.1-0.01c0.29-0.04,0.56-0.09,0.81-0.15l3.42,5.47c0.16,0.26,0.44,0.43,0.74,0.45c0.03,0,0.05,0,0.08,0
	c0.28,0,0.54-0.12,0.73-0.33l0.14-0.16l0.75,0.83l-1.7,8.55c-0.07,0.36,0.07,0.74,0.36,0.96l2.59,1.97c0.17,0.13,0.38,0.2,0.59,0.2
	c0.21,0,0.42-0.07,0.59-0.2l2.58-1.97c0.29-0.22,0.43-0.6,0.36-0.96l-1.69-8.55l0.9-1l0.36,0.37c0.18,0.19,0.43,0.29,0.69,0.29
	c0.04,0,0.08,0,0.12-0.01c0.3-0.04,0.57-0.21,0.72-0.47l3.06-5.26c0.27,0.06,0.54,0.11,0.83,0.15c0.03,0,0.07,0.01,0.1,0.01
	c0.05,0,4.97,0.21,7.77,3.45C49.93,42.63,50.55,45.05,50.22,48.04z M62.02,39.97l-0.27,2.46c-3.27,0.84-6.58,1.22-9.84,1.17
	c-0.37-1.53-1.05-2.88-2.05-4.04c-1.6-1.86-3.72-2.88-5.51-3.44c1.4-1.38,3.64-1.5,3.66-1.5c0.04,0,0.09-0.01,0.13-0.01
	c0.28-0.05,0.57-0.11,0.86-0.2c0.01,0,0.01,0,0.02,0c0.01,0,0.01-0.01,0.02-0.01c0,0,0.01,0,0.01,0c0,0,0,0,0.01,0
	c1.1-0.36,1.65-0.98,1.93-1.57c0.53,0.22,1.09,0.33,1.66,0.33c0.55,0,1.1-0.11,1.62-0.32c0.34,0.76,1.01,1.34,1.96,1.66
	c0.01,0,0.02,0.01,0.03,0.02c0.29,0.09,0.6,0.15,1.02,0.21c0.02,0,2.5,0.13,3.86,1.71C61.88,37.29,62.18,38.48,62.02,39.97z"/></svg>