<?xml version="1.0" standalone="no"?>
<!DOCTYPE svg PUBLIC "-//W3C//DTD SVG 20010904//EN"
 "http://www.w3.org/TR/2001/REC-SVG-20010904/DTD/svg10.dtd">
<svg version="1.0" xmlns="http://www.w3.org/2000/svg"
 width="256.000000pt" height="256.000000pt" viewBox="0 0 256.000000 256.000000"
 preserveAspectRatio="xMidYMid meet">

<g transform="translate(0.000000,256.000000) scale(0.100000,-0.100000)"
fill="#000000" stroke="none">
<path d="M2129 2501 c-14 -40 -51 -57 -90 -40 -25 10 -32 8 -66 -20 l-38 -31
-683 0 c-749 0 -725 2 -757 -60 -12 -24 -15 -80 -15 -325 l0 -295 -72 0 c-126
0 -181 -49 -176 -155 3 -42 6 -50 24 -53 20 -3 22 3 26 57 6 85 14 91 114 91
83 0 84 0 84 -25 0 -24 -3 -25 -58 -25 -32 0 -63 -5 -70 -12 -9 -9 -12 -156
-12 -603 0 -324 4 -596 8 -603 7 -10 201 -12 938 -10 l929 3 0 610 0 610 -67
3 c-65 3 -68 4 -68 27 0 25 1 25 84 25 76 0 86 -2 100 -22 14 -20 16 -100 16
-670 l0 -648 -995 0 -995 0 -2 548 -3 547 -22 3 -23 3 -2 -548 -3 -548 -55 -5
c-48 -4 -56 -8 -64 -31 -13 -38 16 -127 59 -177 24 -27 31 -42 22 -42 -20 0
-29 -26 -13 -39 9 -8 332 -10 1092 -9 l1079 3 0 26 c1 14 16 43 33 65 37 44
67 133 58 170 -7 28 -41 44 -92 44 l-34 0 0 650 c0 722 2 698 -65 726 -19 8
-66 14 -105 14 l-70 0 0 106 c0 79 3 105 12 102 7 -3 15 -15 18 -29 5 -20 14
-25 58 -32 58 -9 79 -1 84 35 4 28 54 46 80 29 29 -18 42 -13 83 29 33 34 37
43 28 62 -13 30 10 88 35 88 30 0 42 22 42 78 0 50 -2 54 -29 63 -40 14 -58
59 -37 92 16 23 15 25 -25 70 -40 46 -41 47 -70 32 -26 -14 -32 -14 -59 0 -17
9 -30 23 -30 35 0 25 -7 28 -74 36 l-56 7 -11 -32z m97 -46 c9 -37 104 -81
133 -63 30 18 49 -2 33 -36 -15 -34 16 -116 52 -134 32 -16 35 -49 4 -54 -34
-5 -74 -93 -60 -131 9 -23 7 -29 -9 -37 -13 -7 -24 -7 -38 2 -26 16 -111 -20
-129 -55 -14 -28 -47 -27 -55 2 -2 9 -28 29 -57 43 -42 21 -58 24 -73 16 -27
-14 -56 14 -37 36 13 16 12 22 -13 91 -10 26 -23 42 -38 45 -33 8 -35 46 -4
57 35 11 76 99 62 131 -15 33 4 49 38 34 20 -9 32 -9 58 2 17 8 40 17 50 20 9
3 22 17 27 31 13 34 47 34 56 0z m-282 -104 c3 -4 0 -22 -6 -39 -9 -22 -20
-32 -38 -34 -24 -3 -25 -7 -28 -68 -3 -64 -2 -66 25 -76 20 -8 -170 -11 -667
-10 l-695 1 -3 97 c-4 154 -87 138 722 138 377 0 687 -4 690 -9z m-15 -305
c-10 -21 -7 -30 22 -65 21 -25 43 -41 57 -41 l22 0 0 -648 c0 -663 1 -690 37
-661 10 9 13 103 13 475 l0 464 45 0 45 0 -2 -562 -3 -563 -42 -3 -42 -3 -3
43 c-2 35 -7 43 -23 43 -16 0 -21 -8 -23 -42 l-3 -43 -750 0 -749 0 0 815 0
815 705 0 705 0 -11 -24z m-1449 -1042 l0 -565 -42 3 -43 3 -3 563 -2 562 45
0 45 0 0 -566z m480 -744 c24 -59 30 -60 315 -60 285 0 289 1 320 61 l16 29
394 0 c309 0 395 -3 395 -12 0 -35 -24 -92 -51 -123 -61 -69 -7 -66 -1085 -63
l-970 3 -43 28 c-29 20 -50 44 -67 80 -44 95 -77 87 370 87 l394 0 12 -30z
m580 5 c-10 -13 -53 -15 -265 -15 -212 0 -255 2 -265 15 -11 13 20 15 265 15
245 0 276 -2 265 -15z"/>
<path d="M2152 2343 c-13 -3 -41 -22 -61 -42 -66 -66 -64 -150 4 -210 64 -56
147 -50 204 14 53 61 50 143 -7 198 -43 41 -80 51 -140 40z m100 -72 c28 -24
33 -36 32 -71 -2 -46 -30 -84 -70 -94 -39 -10 -93 19 -110 59 -18 45 -10 78
28 110 40 34 80 32 120 -4z"/>
<path d="M626 2299 c-36 -28 -36 -80 0 -108 34 -27 64 -27 92 -1 45 42 15 130
-44 130 -12 0 -33 -9 -48 -21z m64 -49 c0 -13 -7 -20 -20 -20 -19 0 -27 20
-13 33 13 14 33 6 33 -13z"/>
<path d="M785 2295 c-14 -13 -25 -36 -25 -50 0 -33 42 -75 75 -75 33 0 75 42
75 75 0 14 -11 37 -25 50 -13 14 -36 25 -50 25 -14 0 -37 -11 -50 -25z m70
-35 c4 -6 1 -18 -6 -26 -11 -13 -14 -13 -27 0 -8 8 -11 19 -8 25 9 14 33 14
41 1z"/>
<path d="M956 2299 c-36 -28 -36 -80 0 -108 44 -35 93 -22 112 30 17 44 -18
98 -64 99 -12 0 -33 -9 -48 -21z m64 -49 c0 -13 -7 -20 -20 -20 -19 0 -27 20
-13 33 13 14 33 6 33 -13z"/>
<path d="M624 1927 c-2 -7 -3 -89 -2 -182 l3 -170 169 -3 c129 -2 171 1 178
10 13 21 10 332 -4 346 -18 18 -337 17 -344 -1z m296 -172 l0 -135 -125 0
-125 0 0 135 0 135 125 0 125 0 0 -135z"/>
<path d="M1104 1927 c-2 -7 -3 -89 -2 -182 l3 -170 169 -3 c129 -2 171 1 178
10 13 21 10 332 -4 346 -18 18 -337 17 -344 -1z m301 -172 l0 -130 -127 -3
-128 -3 0 136 0 136 128 -3 127 -3 0 -130z"/>
<path d="M1584 1927 c-2 -7 -3 -89 -2 -182 l3 -170 175 0 175 0 3 169 c2 116
-1 173 -9 182 -16 20 -337 20 -345 1z m304 -174 l3 -133 -131 0 -130 0 0 135
0 136 128 -3 127 -3 3 -132z"/>
<path d="M624 1485 c-12 -31 7 -35 176 -35 171 0 185 3 172 38 -7 19 -341 17
-348 -3z"/>
<path d="M1103 1485 c-3 -9 -1 -21 4 -26 5 -5 80 -8 179 -7 161 3 169 4 169
23 0 19 -8 20 -173 23 -150 2 -173 0 -179 -13z"/>
<path d="M1587 1487 c-13 -34 7 -38 179 -35 161 3 169 4 169 23 0 19 -8 20
-171 23 -138 2 -173 0 -177 -11z"/>
<path d="M627 1373 c-4 -3 -7 -15 -7 -25 0 -17 12 -18 174 -18 138 0 175 3
179 14 12 30 -16 36 -178 36 -89 0 -165 -3 -168 -7z"/>
<path d="M1111 1371 c-8 -5 -11 -16 -8 -25 6 -14 30 -16 176 -16 171 0 196 5
171 35 -10 12 -44 15 -169 15 -86 0 -162 -4 -170 -9z"/>
<path d="M1593 1369 c-6 -6 -9 -18 -6 -25 4 -11 41 -14 180 -14 l174 0 -3 23
c-3 22 -5 22 -168 25 -114 2 -169 -1 -177 -9z"/>
<path d="M624 1177 c-2 -7 -3 -89 -2 -182 l3 -170 175 0 175 0 3 169 c2 116
-1 173 -9 182 -16 20 -337 20 -345 1z m304 -174 l3 -133 -131 0 -130 0 0 135
0 136 128 -3 127 -3 3 -132z"/>
<path d="M1111 1176 c-8 -9 -11 -66 -9 -182 l3 -169 175 0 175 0 3 174 c2 133
-1 176 -10 183 -7 4 -83 8 -169 8 -121 0 -159 -3 -168 -14z m297 -173 l3 -133
-131 0 -130 0 0 128 c0 71 3 132 7 136 4 3 61 5 127 4 l121 -3 3 -132z"/>
<path d="M1591 1176 c-8 -9 -11 -65 -9 -182 l3 -169 175 0 175 0 0 180 0 180
-166 3 c-133 2 -168 0 -178 -12z m299 -171 l0 -135 -130 0 -130 0 0 128 c0 71
3 132 7 135 3 4 62 7 130 7 l123 0 0 -135z"/>
<path d="M624 735 c-12 -31 7 -35 176 -35 170 0 195 5 170 35 -18 22 -338 22
-346 0z"/>
<path d="M1111 741 c-8 -5 -11 -16 -8 -25 6 -15 27 -16 179 -14 165 3 173 4
173 23 0 19 -7 20 -165 22 -91 2 -171 -1 -179 -6z"/>
<path d="M1593 739 c-6 -6 -9 -18 -6 -25 4 -11 41 -14 180 -14 l174 0 -3 23
c-3 22 -5 22 -168 25 -114 2 -169 -1 -177 -9z"/>
<path d="M624 615 c-12 -31 7 -35 176 -35 170 0 195 5 170 35 -18 22 -338 22
-346 0z"/>
<path d="M1111 621 c-8 -5 -11 -16 -8 -25 6 -15 27 -16 179 -14 165 3 173 4
173 23 0 19 -7 20 -165 22 -91 2 -171 -1 -179 -6z"/>
<path d="M1593 619 c-6 -6 -9 -18 -6 -25 4 -11 41 -14 180 -14 l174 0 -3 23
c-3 22 -5 22 -168 25 -114 2 -169 -1 -177 -9z"/>
<path d="M32 58 c4 -28 58 -38 77 -14 19 23 4 36 -40 36 -36 0 -40 -2 -37 -22z"/>
<path d="M2422 58 c3 -20 9 -23 53 -23 44 0 50 3 53 23 3 21 0 22 -53 22 -53
0 -56 -1 -53 -22z"/>
</g>
</svg>
