<svg width="72" height="72" viewBox="0 0 72 72" fill="none" xmlns="http://www.w3.org/2000/svg">
<path d="M22.5 13.5L25.6815 10.3185L33.75 18.387V0H38.25V18.387L46.3185 10.3185L49.5 13.5L36 27L22.5 13.5Z" fill="black"/>
<path d="M49.5 35.9999C49.5025 34.2266 49.1546 32.4703 48.4762 30.832C47.7977 29.1936 46.8022 27.7055 45.5468 26.4531L36 35.9999L26.4533 26.4531C24.8836 28.023 23.7254 29.9558 23.0811 32.0802C22.4368 34.2046 22.3263 36.4551 22.7595 38.6324C23.1927 40.8097 24.1561 42.8466 25.5644 44.5626C26.9728 46.2787 28.7826 47.621 30.8336 48.4705C32.8845 49.3201 35.1134 49.6508 37.3227 49.4333C39.5319 49.2158 41.6535 48.4568 43.4994 47.2236C45.3453 45.9904 46.8587 44.321 47.9053 42.3632C48.952 40.4055 49.4997 38.2198 49.5 35.9999V35.9999Z" fill="black"/>
<path d="M67.5 36.0001C67.5025 31.8637 66.6878 27.7675 65.1028 23.9468C63.5178 20.1262 61.1936 16.6562 58.2637 13.7363L55.0822 16.9178C58.861 20.6928 61.4352 25.5037 62.4792 30.7419C63.5232 35.9801 62.9901 41.4103 60.9473 46.3455C58.9046 51.2807 55.4439 55.4991 51.0032 58.4671C46.5625 61.4351 41.3412 63.0193 36 63.0193C30.6587 63.0193 25.4375 61.4351 20.9968 58.4671C16.556 55.4991 13.0954 51.2807 11.0526 46.3455C9.00987 41.4103 8.47677 35.9801 9.52078 30.7419C10.5648 25.5037 13.139 20.6928 16.9177 16.9178L13.7362 13.7363C10.0742 17.3988 7.37202 21.9079 5.86893 26.8641C4.36585 31.8204 4.1083 37.0709 5.11911 42.1505C6.12992 47.23 8.37787 51.9819 11.6639 55.9852C14.9498 59.9885 19.1724 63.1196 23.9575 65.1011C28.7427 67.0826 33.9426 67.8535 39.0968 67.3453C44.251 66.8371 49.2003 65.0656 53.5063 62.1878C57.8123 59.3099 61.3421 55.4145 63.7831 50.8466C66.224 46.2787 67.5006 41.1793 67.5 36.0001V36.0001Z" fill="black"/>
</svg>
