<svg width="72" height="72" viewBox="0 0 72 72" fill="none" xmlns="http://www.w3.org/2000/svg">
<g clip-path="url(#clip0_152_297)">
<path d="M71.7442 1.99432C72.3237 3.39205 72.0851 4.58523 71.0283 5.57386L45.8181 30.7841V68.7273C45.8181 70.1591 45.1533 71.1648 43.8238 71.7443C43.3806 71.9148 42.9545 72 42.5454 72C41.6249 72 40.8579 71.6761 40.2442 71.0284L27.1534 57.9375C26.5056 57.2898 26.1818 56.5227 26.1818 55.6364V30.7841L0.971605 5.57386C-0.0852105 4.58523 -0.323846 3.39205 0.255698 1.99432C0.835242 0.664773 1.84092 0 3.27274 0H68.7271C70.159 0 71.1646 0.664773 71.7442 1.99432Z" fill="black"/>
</g>
<defs>
<clipPath id="clip0_152_297">
<rect width="72" height="72" fill="white"/>
</clipPath>
</defs>
</svg>
