<svg width="72" height="72" viewBox="0 0 72 72" fill="none" xmlns="http://www.w3.org/2000/svg">
<path d="M31.5 63C25.5326 63 19.8097 60.6295 15.5901 56.4099C11.3705 52.1903 9 46.4674 9 40.5C9 34.5326 11.3705 28.8097 15.5901 24.5901C19.8097 20.3705 25.5326 18 31.5 18H40.5V29.25L54 15.75L40.5 2.25V13.5H31.5C24.3392 13.5 17.4716 16.3446 12.4081 21.4081C7.34463 26.4716 4.5 33.3392 4.5 40.5C4.5 47.6608 7.34463 54.5284 12.4081 59.5919C17.4716 64.6554 24.3392 67.5 31.5 67.5V63Z" fill="black"/>
<path d="M26.2575 54L22.3515 51.75L27.4973 42.75H18.747L27.7313 27L31.6395 29.25L26.5005 38.25H35.253L26.2575 54V54ZM45 45H36V49.5H45V54H38.25V58.5H45V63H36V67.5H45C46.1929 67.4982 47.3365 67.0235 48.18 66.18C49.0235 65.3365 49.4982 64.1929 49.5 63V49.5C49.4988 48.3069 49.0243 47.163 48.1807 46.3193C47.337 45.4757 46.1931 45.0012 45 45V45ZM63 67.5H58.5C57.3069 67.4988 56.163 67.0243 55.3193 66.1807C54.4757 65.337 54.0012 64.1931 54 63V49.5C54.0012 48.3069 54.4757 47.163 55.3193 46.3193C56.163 45.4757 57.3069 45.0012 58.5 45H63C64.1931 45.0012 65.337 45.4757 66.1807 46.3193C67.0243 47.163 67.4988 48.3069 67.5 49.5V63C67.4988 64.1931 67.0243 65.337 66.1807 66.1807C65.337 67.0243 64.1931 67.4988 63 67.5ZM58.5 49.5V63H63V49.5H58.5Z" fill="black"/>
</svg>
