<svg width="72" height="72" viewBox="0 0 72 72" fill="none" xmlns="http://www.w3.org/2000/svg">
<path d="M12 6H60C61.5913 6 63.1174 6.63214 64.2426 7.75736C65.3679 8.88258 66 10.4087 66 12V48C66 49.5913 65.3679 51.1174 64.2426 52.2426C63.1174 53.3679 61.5913 54 60 54H48L36 66L24 54H12C10.4087 54 8.88258 53.3679 7.75736 52.2426C6.63214 51.1174 6 49.5913 6 48V12C6 10.4087 6.63214 8.88258 7.75736 7.75736C8.88258 6.63214 10.4087 6 12 6V6ZM15 15V21H57V15H15ZM15 27V33H45V27H15ZM15 39V45H51V39H15Z" fill="black"/>
</svg>
