<svg width="20" height="21" viewBox="0 0 20 21" fill="none" xmlns="http://www.w3.org/2000/svg">
<path d="M9.08203 0.204146C9.36979 0.0711827 9.683 0.00231934 10 0.00231934C10.317 0.00231934 10.6302 0.0711827 10.918 0.204146L19.457 4.15059C19.7891 4.30294 20 4.63497 20 4.967C20 5.36544 19.7891 5.69747 19.457 5.85372L10.918 9.79903C10.3359 10.0686 9.66406 10.0686 9.08203 9.79903L0.544141 5.85372C0.212422 5.69747 0 5.36544 0 4.967C0 4.63497 0.212383 4.30294 0.544141 4.15059L9.08203 0.204146ZM19.457 9.15059C19.7891 9.30294 20 9.63497 20 9.967C20 10.3654 19.7891 10.6975 19.457 10.8537L10.918 14.799C10.3359 15.0686 9.66406 15.0686 9.08203 14.799L0.544141 10.8537C0.212422 10.6975 0 10.3654 0 9.967C0 9.63497 0.212383 9.30294 0.544141 9.15059L2.62227 8.18965L8.55859 10.9318C9.47266 11.3576 10.5273 11.3576 11.4414 10.9318L17.3789 8.18965L19.457 9.15059ZM11.4414 15.9318L17.3789 13.1897L19.457 14.1506C19.7891 14.3029 20 14.635 20 14.967C20 15.3654 19.7891 15.6975 19.457 15.8537L10.918 19.799C10.3359 20.0686 9.66406 20.0686 9.08203 19.799L0.544141 15.8537C0.212422 15.6975 0 15.3654 0 14.967C0 14.635 0.212383 14.3029 0.544141 14.1506L2.62227 13.1897L8.55859 15.9318C9.47266 16.3576 10.5273 16.3576 11.4414 15.9318Z" fill="#172B5E"/>
</svg>
