<svg width="72" height="72" viewBox="0 0 72 72" fill="none" xmlns="http://www.w3.org/2000/svg">
<path d="M12 32.9998H30C30.7957 32.9998 31.5587 32.6837 32.1213 32.1211C32.6839 31.5585 33 30.7955 33 29.9998V11.9998C33 11.2042 32.6839 10.4411 32.1213 9.87849C31.5587 9.31588 30.7957 8.99981 30 8.99981H12C11.2044 8.99981 10.4413 9.31588 9.87868 9.87849C9.31607 10.4411 9 11.2042 9 11.9998V29.9998C9 30.7955 9.31607 31.5585 9.87868 32.1211C10.4413 32.6837 11.2044 32.9998 12 32.9998ZM12 62.9998H30C30.7957 62.9998 31.5587 62.6837 32.1213 62.1211C32.6839 61.5585 33 60.7955 33 59.9998V41.9998C33 41.2042 32.6839 40.4411 32.1213 39.8785C31.5587 39.3159 30.7957 38.9998 30 38.9998H12C11.2044 38.9998 10.4413 39.3159 9.87868 39.8785C9.31607 40.4411 9 41.2042 9 41.9998V59.9998C9 60.7955 9.31607 61.5585 9.87868 62.1211C10.4413 62.6837 11.2044 62.9998 12 62.9998ZM42 62.9998H60C60.7957 62.9998 61.5587 62.6837 62.1213 62.1211C62.6839 61.5585 63 60.7955 63 59.9998V41.9998C63 41.2042 62.6839 40.4411 62.1213 39.8785C61.5587 39.3159 60.7957 38.9998 60 38.9998H42C41.2044 38.9998 40.4413 39.3159 39.8787 39.8785C39.3161 40.4411 39 41.2042 39 41.9998V59.9998C39 60.7955 39.3161 61.5585 39.8787 62.1211C40.4413 62.6837 41.2044 62.9998 42 62.9998ZM63.879 18.8788L53.121 8.12081C52.8426 7.84198 52.512 7.62076 52.1481 7.46983C51.7841 7.3189 51.394 7.24121 51 7.24121C50.606 7.24121 50.2159 7.3189 49.8519 7.46983C49.488 7.62076 49.1574 7.84198 48.879 8.12081L38.121 18.8788C37.8422 19.1572 37.621 19.4878 37.47 19.8517C37.3191 20.2157 37.2414 20.6058 37.2414 20.9998C37.2414 21.3938 37.3191 21.7839 37.47 22.1479C37.621 22.5118 37.8422 22.8425 38.121 23.1208L48.879 33.8788C49.1574 34.1577 49.488 34.3789 49.8519 34.5298C50.2159 34.6807 50.606 34.7584 51 34.7584C51.394 34.7584 51.7841 34.6807 52.1481 34.5298C52.512 34.3789 52.8426 34.1577 53.121 33.8788L63.879 23.1208C64.1578 22.8425 64.3791 22.5118 64.53 22.1479C64.6809 21.7839 64.7586 21.3938 64.7586 20.9998C64.7586 20.6058 64.6809 20.2157 64.53 19.8517C64.3791 19.4878 64.1578 19.1572 63.879 18.8788V18.8788Z" fill="black"/>
</svg>
