<?xml version="1.0" standalone="no"?>
<!DOCTYPE svg PUBLIC "-//W3C//DTD SVG 20010904//EN"
 "http://www.w3.org/TR/2001/REC-SVG-20010904/DTD/svg10.dtd">
<svg version="1.0" xmlns="http://www.w3.org/2000/svg"
 width="130.000000pt" height="140.000000pt" viewBox="0 0 130.000000 140.000000"
 preserveAspectRatio="xMidYMid meet">

<g transform="translate(0.000000,140.000000) scale(0.100000,-0.100000)"
fill="#000000" stroke="none">
<path d="M390 1110 l0 -50 -100 0 c-150 0 -140 24 -140 -333 0 -237 3 -297 14
-313 13 -17 30 -19 195 -22 196 -4 200 -5 160 -56 -14 -18 -30 -26 -50 -26
-42 0 -69 -17 -69 -43 0 -44 13 -47 220 -47 207 0 220 3 220 47 0 26 -27 43
-69 43 -20 0 -36 8 -50 26 -40 51 -36 52 160 56 165 3 182 5 195 22 11 16 14
76 14 313 0 357 10 333 -140 333 l-100 0 0 50 c0 28 -3 50 -6 50 -3 0 -19 -10
-36 -21 l-29 -21 -24 22 -24 22 -27 -21 c-27 -21 -35 -20 -66 7 -15 13 -20 12
-44 -7 -27 -21 -35 -20 -67 7 -16 14 -20 13 -41 -7 l-25 -23 -29 21 c-17 11
-33 21 -36 21 -3 0 -6 -22 -6 -50z m175 -20 c5 0 18 9 30 20 l22 20 25 -20
c15 -11 30 -20 34 -20 4 0 17 9 29 20 l22 20 28 -21 c22 -18 31 -20 46 -11 10
7 21 12 23 12 2 0 4 -103 4 -230 l0 -230 -209 0 -210 0 4 223 c2 122 5 223 8
225 2 2 12 0 21 -3 11 -4 28 1 44 14 l27 21 22 -20 c12 -11 25 -20 30 -20z
m-175 -249 l0 -190 -37 -3 c-21 -2 -37 -7 -35 -13 1 -6 110 -10 302 -10 193 0
300 4 300 10 0 6 -15 11 -35 13 l-35 3 0 190 0 190 103 -3 102 -3 3 -242 2
-243 -440 0 -440 0 0 238 c0 131 3 242 7 245 3 4 51 7 105 7 l98 0 0 -189z
m668 -368 l-3 -48 -435 0 -435 0 -3 48 -3 47 441 0 441 0 -3 -47z m-375 -123
l15 -40 -79 0 c-77 0 -78 0 -70 23 5 12 12 30 15 40 4 13 16 17 54 17 48 0 49
-1 65 -40z m127 -85 c0 -13 -28 -15 -190 -15 -162 0 -190 2 -190 15 0 13 28
15 190 15 162 0 190 -2 190 -15z"/>
<path d="M460 1000 c0 -6 60 -10 160 -10 100 0 160 4 160 10 0 6 -60 10 -160
10 -100 0 -160 -4 -160 -10z"/>
<path d="M693 895 c-33 -32 -28 -85 7 -85 29 0 50 -11 50 -26 0 -16 -46 -19
-55 -4 -9 14 -25 12 -25 -3 0 -7 11 -23 25 -35 25 -22 26 -22 50 -5 50 36 40
89 -18 95 -40 4 -44 32 -4 36 15 2 27 -1 27 -7 0 -6 7 -11 15 -11 8 0 15 3 15
8 0 7 -56 63 -62 61 -1 -1 -13 -11 -25 -24z"/>
<path d="M465 890 c-3 -5 0 -13 8 -16 23 -9 142 0 142 11 0 14 -142 19 -150 5z"/>
<path d="M463 818 c2 -9 27 -13 77 -13 50 0 75 4 78 13 3 9 -17 12 -78 12 -61
0 -81 -3 -77 -12z"/>
<path d="M464 761 c-15 -15 6 -21 76 -21 44 0 80 4 80 9 0 9 -148 20 -156 12z"/>
<path d="M604 479 c-10 -17 13 -36 27 -22 12 12 4 33 -11 33 -5 0 -12 -5 -16
-11z"/>
</g>
</svg>
