<?xml version="1.0" encoding="iso-8859-1"?>
<!-- Generator: Adobe Illustrator 19.1.0, SVG Export Plug-In . SVG Version: 6.00 Build 0)  -->
<svg version="1.1" id="Capa_1" xmlns="http://www.w3.org/2000/svg" xmlns:xlink="http://www.w3.org/1999/xlink" x="0px" y="0px"
	 viewBox="0 0 487.297 487.297" style="enable-background:new 0 0 487.297 487.297;" xml:space="preserve">
<g>
	<g>
		<path d="M138.746,246.697c3.5,2.8,5.3,7.3,4.4,11.7l-4.2,21.8c-1,5.4,2,10.6,7,12.5l13.6,5.1l13.6,5.1c5,1.9,10.7-0.2,13.5-4.9
			l10.8-18.7c2.3-3.9,6.6-6.2,11.1-6c6.4,0.3,12.9,0.1,19.3-0.6c4.5-0.5,8.8,1.4,11.4,5.1l12.5,18.4c3.1,4.5,9,6.1,13.9,3.9
			l13.2-6.1l13.2-6.1c5-2.3,7.6-7.8,6.2-13.1l-5.6-20.8c-1.2-4.4,0.3-9,3.6-12c4.8-4.4,9.3-9.1,13.3-14.1c2.8-3.5,7.3-5.2,11.6-4.4
			l21.8,4.2c5.4,1,10.6-2,12.5-7l5.1-13.6l5.1-13.6c1.9-5-0.2-10.7-4.9-13.5l-18.8-10.6c-4-2.2-6.3-6.6-6.1-11.2
			c0.3-6.4,0.1-12.8-0.6-19.3c-0.5-4.5,1.4-8.8,5.1-11.4l18.4-12.5c4.5-3.1,6.1-9,3.9-13.9l-6.1-13.2l-6.1-13.2
			c-2.3-5-7.8-7.6-13.1-6.2l-20.8,5.6c-4.4,1.2-9.1-0.3-12.1-3.7c-4.5-5.1-9.4-9.6-14.6-13.7c-3.6-2.8-5.4-7.3-4.5-11.8l4.1-21.5
			c1-5.4-2-10.6-7-12.5l-13.6-5.1l-13.6-5.1c-5-1.9-10.7,0.2-13.5,4.9l-11,19c-2.3,3.9-6.5,6.1-11,5.9c-6.5-0.3-13-0.1-19.5,0.7
			c-4.5,0.5-8.9-1.4-11.4-5.2l-12.3-18.1c-3-4.4-8.8-6.1-13.7-4.1l-13.2,6.1l-12.9,6.2c-5,2.3-7.6,7.8-6.1,13.1l5.7,21.1
			c1.2,4.3-0.2,9-3.6,12c-4.8,4.4-9.3,9.2-13.3,14.3c-2.8,3.5-7.3,5.3-11.7,4.4l-21.6-4.1c-5.4-1-10.6,2-12.5,7l-5.1,13.6l-5.1,13.6
			c-1.9,5,0.2,10.7,4.9,13.5l19,11c3.9,2.3,6.1,6.5,5.9,11c-0.3,6.5-0.1,13,0.7,19.5c0.5,4.5-1.4,8.9-5.2,11.4l-18,12.1
			c-4.5,3.1-6.1,9-3.9,13.9l6.1,13.2l6.1,13.2c2.3,5,7.8,7.6,13.1,6.2l21.1-5.7c4.4-1.2,9,0.3,12,3.6
			C129.446,238.597,133.946,242.897,138.746,246.697z M187.046,93.997c32-15.2,70.3-1.6,85.5,30.4c15.2,32,1.6,70.3-30.4,85.5
			s-70.3,1.6-85.5-30.4S155.046,109.197,187.046,93.997z"/>
		<path d="M421.446,318.197l-8.4-2.7c-1.8-0.6-3-2.1-3.3-3.9c-0.4-2.6-1.1-5.2-1.9-7.7c-0.6-1.7-0.2-3.7,1.1-5l6.3-6.6
			c1.5-1.6,1.7-4.1,0.4-5.9l-3.6-4.8l-3.6-4.8c-1.3-1.8-3.7-2.3-5.7-1.3l-7.8,4.1c-1.7,0.9-3.7,0.7-5.2-0.4
			c-2.1-1.5-4.4-2.9-6.8-4.1c-1.6-0.8-2.7-2.5-2.8-4.3l-0.2-9.1c-0.1-2.2-1.7-4.1-3.9-4.4l-5.9-0.9l-5.9-0.9c-2.2-0.3-4.3,1-5,3.1
			l-2.7,8.4c-0.6,1.8-2.1,3.1-4,3.4c-2.7,0.4-5.4,1.1-8,2c-1.8,0.6-3.7,0.2-5.1-1.1l-6.5-6.2c-1.6-1.5-4.1-1.7-5.9-0.4l-4.8,3.6
			l-4.8,3.6c-1.8,1.3-2.3,3.7-1.3,5.7l4.1,8c0.8,1.6,0.7,3.6-0.4,5.1c-1.5,2.2-2.9,4.5-4.1,6.9c-0.8,1.7-2.5,2.7-4.3,2.8l-9,0.2
			c-2.2,0.1-4.1,1.7-4.5,3.8l-0.9,5.9l-0.9,5.9c-0.3,2.2,1,4.3,3.1,5l8.6,2.7c1.8,0.6,3,2.1,3.3,3.9c0.4,2.7,1.1,5.2,2,7.8
			c0.6,1.7,0.2,3.7-1.1,5l-6.2,6.5c-1.5,1.6-1.7,4.1-0.4,5.9l3.6,4.8l3.6,4.8c1.3,1.8,3.7,2.3,5.7,1.3l8-4.1
			c1.6-0.8,3.6-0.7,5.1,0.4c2.2,1.5,4.5,2.9,6.9,4.1c1.7,0.8,2.7,2.5,2.8,4.3l0.2,9c0.1,2.2,1.7,4.1,3.9,4.4l5.9,0.9l5.9,0.9
			c2.2,0.3,4.3-1,5-3.1l2.7-8.5c0.6-1.8,2.1-3,3.9-3.4c2.5-0.4,5-1.1,7.4-1.9c1.8-0.6,3.7-0.2,5,1.1l6.6,6.3
			c1.6,1.5,4.1,1.7,5.9,0.4l4.8-3.6l4.8-3.6c1.8-1.3,2.3-3.7,1.3-5.7l-4.1-7.9c-0.9-1.7-0.7-3.6,0.4-5.2c1.5-2.1,2.9-4.4,4.1-6.8
			c0.8-1.6,2.5-2.7,4.3-2.8l9.1-0.2c2.2-0.1,4.1-1.7,4.4-3.9l0.9-5.9l0.9-5.9C424.946,320.997,423.546,318.897,421.446,318.197z
			 M386.546,323.097c-1.9,14.4-15.1,24.6-29.5,22.7s-24.6-15.1-22.7-29.5s15.1-24.6,29.5-22.7
			C378.246,295.497,388.446,308.697,386.546,323.097z"/>
		<path d="M306.746,379.897l-12.7-2.2c-2.7-0.5-4.8-2.4-5.6-5c-1.1-3.7-2.6-7.3-4.3-10.7c-1.2-2.4-1-5.2,0.6-7.4l7.7-10.7
			c1.9-2.6,1.6-6.2-0.7-8.5l-6.1-6.1l-6.1-6.1c-2.3-2.3-5.9-2.6-8.5-0.8l-10.5,7.5c-2.2,1.6-5.1,1.7-7.6,0.5
			c-3.4-1.8-6.9-3.3-10.6-4.5c-2.5-0.9-4.4-3-4.9-5.6l-2.2-13.1c-0.5-3.2-3.3-5.6-6.5-5.6h-8.7h-8.7c-3.3,0-6,2.3-6.6,5.5l-2.2,12.6
			c-0.5,2.7-2.4,4.8-5.1,5.6c-3.9,1.2-7.6,2.7-11.1,4.5c-2.4,1.2-5.3,1.1-7.5-0.5l-10.6-7.6c-2.6-1.9-6.2-1.6-8.5,0.7l-6.1,6.1
			l-6.1,6.1c-2.3,2.3-2.6,5.9-0.8,8.5l7.5,10.7c1.5,2.2,1.7,5.1,0.5,7.4c-1.8,3.4-3.3,7-4.5,10.7c-0.8,2.6-3,4.4-5.6,4.9l-12.9,2.1
			c-3.1,0.5-5.5,3.3-5.7,6.4v8.7v8.7c0,3.3,2.3,6,5.5,6.6l12.9,2.2c2.6,0.5,4.8,2.4,5.6,4.9c1.2,3.7,2.6,7.3,4.4,10.8
			c1.2,2.4,1,5.3-0.5,7.4l-7.6,10.6c-1.9,2.6-1.6,6.2,0.7,8.5l6.1,6.1l6.1,6.1c2.3,2.3,5.9,2.6,8.5,0.8l10.7-7.5
			c2.2-1.5,5.1-1.7,7.4-0.5c3.4,1.8,7,3.3,10.7,4.5c2.6,0.8,4.4,3,4.9,5.6l2.1,12.9c0.5,3.2,3.3,5.6,6.5,5.6h8.7h8.7
			c3.3,0,6-2.3,6.6-5.5l2.2-12.8c0.5-2.7,2.4-4.8,5-5.6c3.5-1.1,6.9-2.5,10.2-4.2c2.4-1.2,5.3-1,7.4,0.5l10.7,7.7
			c2.6,1.9,6.2,1.6,8.5-0.7l6.1-6.1l6.1-6.1c2.3-2.3,2.6-5.9,0.8-8.5l-7.4-10.5c-1.6-2.2-1.7-5.1-0.4-7.5c1.8-3.4,3.3-6.9,4.5-10.6
			c0.9-2.5,3-4.4,5.6-4.9l13.1-2.2c3.2-0.5,5.6-3.3,5.6-6.5v-8.7v-8.7C312.346,383.197,309.946,380.397,306.746,379.897z
			 M219.646,432.497c-21.1,0.2-38.4-16.8-38.6-37.9c-0.2-21.1,16.8-38.4,37.9-38.6s38.4,16.8,38.6,37.9
			S240.746,432.297,219.646,432.497z"/>
	</g>
</g>
<g>
</g>
<g>
</g>
<g>
</g>
<g>
</g>
<g>
</g>
<g>
</g>
<g>
</g>
<g>
</g>
<g>
</g>
<g>
</g>
<g>
</g>
<g>
</g>
<g>
</g>
<g>
</g>
<g>
</g>
</svg>
