<svg width="48" height="48" viewBox="0 0 48 48" fill="none" xmlns="http://www.w3.org/2000/svg">
<path d="M40.2423 35.7937C39.3581 33.6992 38.0749 31.7967 36.4642 30.1922C34.8584 28.583 32.9562 27.3 30.8626 26.4141C30.8439 26.4047 30.8251 26.4 30.8064 26.3906C33.7267 24.2812 35.6251 20.8453 35.6251 16.9688C35.6251 10.5469 30.422 5.34375 24.0001 5.34375C17.5782 5.34375 12.3751 10.5469 12.3751 16.9688C12.3751 20.8453 14.2736 24.2812 17.1939 26.3953C17.1751 26.4047 17.1564 26.4094 17.1376 26.4187C15.0376 27.3047 13.1532 28.575 11.5361 30.1969C9.92688 31.8027 8.64389 33.7049 7.75793 35.7984C6.88756 37.8481 6.41816 40.0455 6.37512 42.2719C6.37387 42.3219 6.38264 42.3717 6.40093 42.4183C6.41921 42.4648 6.44663 42.5073 6.48158 42.5431C6.51653 42.5789 6.55829 42.6074 6.60441 42.6268C6.65053 42.6463 6.70007 42.6563 6.75012 42.6562H9.56262C9.76887 42.6562 9.93293 42.4922 9.93762 42.2906C10.0314 38.6719 11.4845 35.2828 14.0532 32.7141C16.7111 30.0563 20.2407 28.5938 24.0001 28.5938C27.7595 28.5938 31.2892 30.0563 33.947 32.7141C36.5157 35.2828 37.9689 38.6719 38.0626 42.2906C38.0673 42.4969 38.2314 42.6562 38.4376 42.6562H41.2501C41.3002 42.6563 41.3497 42.6463 41.3958 42.6268C41.4419 42.6074 41.4837 42.5789 41.5187 42.5431C41.5536 42.5073 41.581 42.4648 41.5993 42.4183C41.6176 42.3717 41.6264 42.3219 41.6251 42.2719C41.5782 40.0312 41.1142 37.8516 40.2423 35.7937ZM24.0001 25.0312C21.8486 25.0312 19.8236 24.1922 18.3001 22.6688C16.7767 21.1453 15.9376 19.1203 15.9376 16.9688C15.9376 14.8172 16.7767 12.7922 18.3001 11.2687C19.8236 9.74531 21.8486 8.90625 24.0001 8.90625C26.1517 8.90625 28.1767 9.74531 29.7001 11.2687C31.2236 12.7922 32.0626 14.8172 32.0626 16.9688C32.0626 19.1203 31.2236 21.1453 29.7001 22.6688C28.1767 24.1922 26.1517 25.0312 24.0001 25.0312Z" fill="#172B5E"/>
</svg>
