<svg xmlns="http://www.w3.org/2000/svg" viewBox="0 0 64 64"><g data-name="Layer 13"><path d="M59,55H56V8a7.008,7.008,0,0,0-7-7H9A5.006,5.006,0,0,0,4,6v8a1,1,0,0,0,1,1h7V58a5.006,5.006,0,0,0,5,5H55a5.006,5.006,0,0,0,5-5V56A1,1,0,0,0,59,55ZM12,13H6V6a3,3,0,0,1,6,0Zm8,43v2a3,3,0,0,1-6,0V6a4.948,4.948,0,0,0-1.026-3H49a5.006,5.006,0,0,1,5,5V55H21A1,1,0,0,0,20,56Zm38,2a3,3,0,0,1-3,3H21a4.973,4.973,0,0,0,1-3V57H58Z"/><path d="M27 44a1 1 0 0 0 1-1V19a1 1 0 0 0-1-1H21a1 1 0 0 0-1 1V43a1 1 0 0 0 1 1zM22 20h4V42H22zM31 44h6a1 1 0 0 0 1-1V29a1 1 0 0 0-1-1H31a1 1 0 0 0-1 1V43A1 1 0 0 0 31 44zm1-14h4V42H32zM41 44h6a1 1 0 0 0 1-1V25a1 1 0 0 0-1-1H41a1 1 0 0 0-1 1V43A1 1 0 0 0 41 44zm1-18h4V42H42z"/></g></svg>